<?xml version="1.0" encoding="UTF-8"?>
<!DOCTYPE svg PUBLIC "-//W3C//DTD SVG 1.1//EN" "http://www.w3.org/Graphics/SVG/1.1/DTD/svg11.dtd">
<!-- Creator: CorelDRAW 2021 (64-Bit) -->
<svg xmlns="http://www.w3.org/2000/svg" xml:space="preserve" width="100%" height="100%" version="1.1" style="shape-rendering:geometricPrecision; text-rendering:geometricPrecision; image-rendering:optimizeQuality; fill-rule:evenodd; clip-rule:evenodd"
viewBox="0 0 29.7 21"
 xmlns:xlink="http://www.w3.org/1999/xlink"
 xmlns:xodm="http://www.corel.com/coreldraw/odm/2003">
 <defs>
  <style type="text/css">
   <![CDATA[
    .fil0 {fill:#4E4E4E}
    .fil1 {fill:#F0483E}
   ]]>
  </style>
 </defs>
 <g id="Layer_x0020_1">
  <metadata id="CorelCorpID_0Corel-Layer"/>
  <g id="_2460186101488">
   <path class="fil0" d="M8.7847 11.46366c-0.02199,0.01675 -0.04413,0.0443 -0.06618,0.06786 -0.14155,0.15125 -0.42261,0.14594 -0.56024,-0.01165 -0.01774,-0.02031 -0.03795,-0.05448 -0.05887,-0.07258 -0.02738,0.01515 -0.24137,0.25647 -0.30859,0.30837 -0.1142,0.08817 -0.18657,0.17527 -0.34615,0.28204 -0.16119,0.10783 -0.36217,0.23367 -0.55394,0.28365 -0.24345,0.06345 -0.48079,0.08362 -0.72479,0.0012 -0.11327,-0.03825 -0.19293,-0.0739 -0.28619,-0.1326 -0.15128,-0.09522 -0.30725,-0.27137 -0.39166,-0.43641 -0.15269,-0.29858 -0.16599,-0.69202 -0.01593,-1.03161l0.39327 -0.86311c0.12952,-0.30345 0.40149,-0.83013 0.54624,-1.11942l0.13631 -0.28248c0.0468,-0.09359 0.09145,-0.1829 0.13959,-0.27918l0.98022 -1.95134c0.04005,-0.07896 0.11323,-0.18809 0.17212,-0.24667 0.15132,-0.15054 0.3264,-0.26105 0.56403,-0.27357 0.38583,-0.02033 0.61482,0.20405 0.77513,0.47183l0.15137 0.26743c0.18626,0.37616 0.372,0.74408 0.55835,1.11681l0.61868 1.25638c0.02361,0.04709 0.04488,0.08977 0.0698,0.1396l0.66572 1.41872c0.1961,0.459 0.38197,0.78994 0.1496,1.31607 -0.02961,0.06703 -0.1183,0.19961 -0.16466,0.25413 -0.49405,0.58113 -1.20768,0.50765 -1.78085,0.11149 -0.10806,-0.07469 -0.14756,-0.11807 -0.23408,-0.18471 -0.12733,-0.09807 -0.35336,-0.35516 -0.4283,-0.41025zm-3.90238 -0.24652c0,0.23481 0.06392,0.45794 0.15242,0.65662 0.21184,0.47563 0.61807,0.8147 1.13006,0.9163 0.05474,0.01087 0.10532,0.0195 0.172,0.02789 0.37645,0.04731 0.60255,-0.02682 0.93588,-0.16225 0.04791,-0.01946 0.08327,-0.03706 0.12879,-0.06157 0.08156,-0.04391 0.15846,-0.0909 0.23156,-0.13965 0.15588,-0.10393 0.37843,-0.2768 0.51167,-0.41156 0.03381,-0.03419 0.06107,-0.06122 0.0951,-0.09527 0.05933,-0.05933 0.0813,-0.07627 0.13163,-0.14439 0.01882,-0.02547 0.01909,-0.03626 0.04208,-0.05311 0.02592,0.01736 0.18063,0.20883 0.28695,0.29365l0.31399 0.27613c0.32503,0.24318 0.66027,0.43229 1.07698,0.49348 0.13261,0.01947 0.23951,0.01538 0.36864,0.01247 0.09548,-0.00216 0.24496,-0.03734 0.32903,-0.06121 0.05068,-0.01438 0.09428,-0.0301 0.14133,-0.04903 0.5112,-0.20563 0.87273,-0.64439 0.99126,-1.17884 0.06217,-0.28038 0.05407,-0.58779 -0.04363,-0.85266 -0.05227,-0.14168 -0.1069,-0.28894 -0.17143,-0.41868 -0.0328,-0.06596 -0.05832,-0.13358 -0.09177,-0.20329 -0.03305,-0.06883 -0.06131,-0.1315 -0.09542,-0.19964 -0.01803,-0.03599 -0.02617,-0.06257 -0.0442,-0.09858l-0.09487 -0.20019c-0.01819,-0.04261 -0.0279,-0.06422 -0.04808,-0.1042l-0.18724 -0.40288c-0.01389,-0.03122 -0.03193,-0.06441 -0.0475,-0.09527l-0.14286 -0.30448c-0.05868,-0.13198 -0.13431,-0.25901 -0.19662,-0.3935l-0.98349 -1.95758c-0.13295,-0.2659 -0.26268,-0.51496 -0.464,-0.71622 -0.10854,-0.10852 -0.19655,-0.17535 -0.34178,-0.24834 -0.33228,-0.16702 -0.74717,-0.15932 -1.08212,-0.00009 -0.06914,0.03288 -0.20899,0.1217 -0.26548,0.17236 -0.01559,0.01398 -0.02217,0.02377 -0.03858,0.03756 -0.09975,0.08386 -0.04478,0.04414 -0.10891,0.11 -0.06902,0.0709 -0.13882,0.17165 -0.18988,0.25746 -0.07554,0.12693 -0.13663,0.25484 -0.20284,0.38727 -0.26318,0.52636 -0.53016,1.05199 -0.79015,1.57985l-0.67869 1.38671c-0.17121,0.34219 -0.30862,0.6708 -0.46964,1.01517 -0.033,0.07058 -0.05815,0.13734 -0.08902,0.20603 -0.09903,0.22043 -0.17117,0.47538 -0.17117,0.72353z"/>
   <path class="fil0" d="M14.22901 11.03631l0.78048 0 0 -1.66566c0,-0.76483 1.06601,-0.80561 1.06601,-0.02855l0 1.69421 0.78048 0 0 -1.89409c0,-0.39457 -0.20449,-0.81291 -0.57781,-0.97362 -0.3627,-0.15615 -0.93037,-0.11977 -1.19986,0.14775 -0.02425,0.02407 -0.04173,0.04629 -0.06882,0.06443l0 -1.57999 -0.78048 0 0 4.23552z"/>
   <path class="fil0" d="M18.5026 10.42715c-0.19879,0 -0.38594,-0.07586 -0.51162,-0.20223 -0.04233,-0.04257 -0.08802,-0.07836 -0.08802,-0.15945l0 -0.86614c0,-0.08893 0.14408,-0.20157 0.21578,-0.24109 0.2362,-0.1302 0.51217,-0.13391 0.76065,-0.03101 0.46973,0.19455 0.58151,0.85938 0.2588,1.2313 -0.01868,0.02153 -0.02583,0.03698 -0.0493,0.05541 -0.17388,0.13652 -0.33739,0.21321 -0.58629,0.21321zm-1.30397 -3.40745l0 3.9595c0,0.02228 0.01579,0.03807 0.03807,0.03807l0.56157 0c0.12183,0 0.10469,-0.1419 0.10469,-0.19988 0.04198,0.01121 0.19669,0.19657 0.47325,0.25012 0.39184,0.07588 0.87497,-0.04035 1.16136,-0.31923 0.02259,-0.022 0.03028,-0.02317 0.05252,-0.04266l0.11911 -0.13788c0.1754,-0.21416 0.30675,-0.52707 0.30675,-0.82588 0,-0.28449 -0.00316,-0.4944 -0.13321,-0.75196 -0.15477,-0.30654 -0.37485,-0.53198 -0.69496,-0.67564 -0.26367,-0.11833 -0.69603,-0.1654 -0.98024,-0.03817 -0.15859,0.07099 -0.26337,0.18189 -0.29506,0.19036 0,-0.21221 0.01447,-1.40088 -0.00952,-1.50386 -0.11562,-0.02692 -0.53736,-0.00951 -0.69482,-0.00951 -0.00247,0.02977 -0.00951,0.03382 -0.00951,0.06662z"/>
   <path class="fil0" d="M23.88026 10.05595l0 -0.8471c0,-0.13987 0.25178,-0.28227 0.38455,-0.31978 0.27926,-0.07892 0.60376,-0.01223 0.79812,0.18411 0.18762,0.18953 0.22601,0.35619 0.22601,0.62108 0,0.53423 -0.60505,0.87121 -1.0933,0.6745 -0.11855,-0.04776 -0.31538,-0.16144 -0.31538,-0.31281zm-0.6948 -3.09336c-0.00498,0.02135 -0.00953,0.02189 -0.00953,0.0476l0 3.94997c0,0.02922 0.00881,0.05711 0.03807,0.05711l0.54253 0c0.15928,0 0.09461,-0.13919 0.12373,-0.19988 0.03406,0.0091 0.04431,0.03097 0.07195,0.05179 0.02596,0.01957 0.04697,0.03623 0.07075,0.05299l0.1562 0.09127c0.47631,0.19878 1.0695,0.0031 1.37866,-0.30788 0.21656,-0.21782 0.36438,-0.46643 0.4109,-0.77884 0.0081,-0.05428 0.02455,-0.09611 0.02455,-0.14679 0,-0.22793 0.0105,-0.29615 -0.04549,-0.5256 -0.02146,-0.08794 -0.05378,-0.17782 -0.09082,-0.25183 -0.04047,-0.0808 -0.07357,-0.14725 -0.12468,-0.21797 -0.07445,-0.10303 -0.06958,-0.08593 -0.13584,-0.15921 -0.00132,-0.00146 -0.00311,-0.00364 -0.00442,-0.00511 -0.24908,-0.27471 -0.62535,-0.42027 -1.02645,-0.42027 -0.2029,0 -0.39719,0.06383 -0.54643,0.16743 -0.05287,0.03669 -0.08913,0.07528 -0.13888,0.10859l0 -1.36108c0.00003,-0.05582 0.01944,-0.1618 -0.03807,-0.1618 -0.09544,0 -0.60463,-0.01071 -0.65673,0.00951z"/>
   <path class="fil1" d="M8.5182 7.02922c0,0.04857 0.00014,0.0158 -0.00951,0.02856 0,-0.05032 0.00007,-0.01419 0.00951,-0.02856zm0 0c0.00188,-0.08398 0.05991,-0.1472 0.09518,-0.19987 -0.11435,0 -0.22572,0.08613 -0.27625,0.15205 -0.08253,0.10767 -0.08543,0.1584 -0.08543,0.34289 -0.09156,0.04844 -0.10106,0.04893 -0.17873,0.11632 -0.04128,0.03581 -0.02273,0.00754 -0.06333,0.06041 -0.01409,0.01835 -0.01699,0.01946 -0.03157,0.03505 -0.21305,0.22789 -0.1241,0.42631 -0.38295,0.5974 -0.05125,0.03388 -0.10804,0.05835 -0.17372,0.07375 -0.06244,0.01464 -0.31123,0.03052 -0.11855,0.13253 0.04619,0.02446 0.18774,0.07425 0.23472,0.05105 0.03873,-0.01914 0.10494,-0.09988 0.16955,-0.1358 0.06974,-0.03877 0.36064,0.03352 0.50617,-0.24576 0.03685,-0.07071 0.02333,-0.16732 0.06693,-0.23763 0.03543,-0.0571 0.10204,-0.10515 0.18467,-0.12037 0.24355,-0.04487 0.42482,0.30662 0.16585,0.4804 -0.27526,0.18471 -0.7996,0.11089 -1.14465,0.6828 -0.0767,0.12713 -0.12717,0.27375 -0.1386,0.46103 -0.02774,0.45449 0.1794,0.7428 0.43916,1.06468 0.02721,0.03372 0.04591,0.04913 0.072,0.08029 0.02781,0.03323 0.03924,0.05069 0.0717,0.0806 0.17912,0.16513 0.27602,0.22136 0.46815,0.3599 0.0166,0.01197 0.03111,0.01989 0.04509,0.03107 0.05855,0.04683 0.10956,0.09144 0.14133,0.16324 0.16953,0.38301 -0.49503,0.52055 -0.49503,0.03817 -0.01129,0.01298 -0.01077,0.01118 -0.01819,0.02938 -0.00724,0.01777 -0.00744,0.02468 -0.01167,0.04545 -0.02107,0.10335 -0.0048,0.18663 0.03938,0.27904 0.02092,0.0181 0.04113,0.05227 0.05887,0.07258 0.13763,0.15759 0.41869,0.1629 0.56024,0.01165 0.02205,-0.02356 0.04419,-0.05111 0.06618,-0.06786 0.01174,-0.0418 0.04477,-0.07184 0.0594,-0.13001 0.13988,-0.55599 -0.34588,-0.81504 -0.38301,-0.95409 0.19006,-0.00424 0.39572,-0.23939 0.35665,-0.48034 -0.04235,-0.26115 -0.21702,-0.37628 -0.48038,-0.37628 0.01892,-0.08122 0.15205,-0.23217 0.21219,-0.28274 0.20836,-0.17521 0.49535,-0.25566 0.76645,-0.18191 0.17062,0.0464 0.2066,0.08371 0.33485,0.1696 0,-0.18402 -0.09179,-0.3894 -0.18452,-0.52934 -0.03915,-0.05909 -0.09297,-0.1107 -0.11054,-0.13692 0.0164,-0.07038 0.25566,-0.41165 0.04455,-0.83456 -0.20304,-0.40675 -0.54766,-0.44368 -0.57827,-0.46869 -0.03807,-0.0311 -0.06621,-0.18434 -0.04474,-0.28412 0.03471,-0.16138 0.10801,-0.1797 0.12159,-0.23058 -0.03009,0.01443 -0.02574,0.0063 -0.06403,0.01212 -0.02207,0.00336 -0.04304,0.00976 -0.06677,0.01888 -0.10993,0.04222 -0.1845,0.12014 -0.23362,0.22326l-0.0163 0.03128z"/>
   <path class="fil0" d="M20.96775 8.48547c0,-0.04784 0.00437,-0.11243 -0.00756,-0.14471 -0.01224,-0.03317 -0.04488,-0.06467 -0.08762,-0.06467l-0.533 0c-0.02194,0 -0.02855,0.00661 -0.02855,0.02855l0 2.67456c0,0.02228 0.01579,0.03807 0.03807,0.03807 0.12925,0 0.56181,0.01259 0.65674,-0.00952 0.03205,-0.13757 -0.00715,-1.79297 0.01153,-1.88256 0.00928,-0.04445 0.04373,-0.06712 0.07621,-0.09511 0.19797,-0.17063 0.5279,-0.25877 0.77866,-0.13558 0.25599,0.12576 0.24721,0.4631 0.24721,0.77121 0,0.45052 0,0.90104 0,1.35156 0.07828,0.01823 0.61653,0.01823 0.69481,0 0.02427,-0.10416 0.00952,-1.2866 0.00952,-1.49433 0,-0.19514 -0.01037,-0.3893 -0.04352,-0.55612 -0.04165,-0.20963 -0.09329,-0.26242 -0.19993,-0.3997 -0.0236,-0.03039 -0.0406,-0.05072 -0.06922,-0.07354 -0.03244,-0.02584 -0.04961,-0.04447 -0.08286,-0.06943 -0.19068,-0.14321 -0.41347,-0.22421 -0.68001,-0.22421 -0.25273,0 -0.44369,0.03959 -0.63351,0.166 -0.07183,0.04783 -0.1239,0.1041 -0.14697,0.11953z"/>
   <path class="fil1" d="M8.36591 11.20763c-0.09131,0 -0.08745,-0.14278 0,-0.14278 0.10202,0 0.10075,0.14278 0,0.14278zm-0.20939 -0.09518l0 0.06662c0,0.09674 0.17158,0.2187 0.29779,0.10743 0.13173,-0.11616 0.04708,-0.32634 -0.11695,-0.32634 -0.08276,0 -0.18084,0.07274 -0.18084,0.15229z"/>
  </g>
 </g>
</svg>
